:FULLY-SPECIFIED
:DEGREES
101
root -2.89625 16.3143 -36.1166 3.83805 0.666781 -2.91587
lfemur -23.9207 6.6939 -8.21289
ltibia 48.5359
lfoot -23.7278 0.409043
ltoes -9.79515
rfemur -23.8501 -7.57244 14.6347
rtibia 50.5829
rfoot -27.5636 2.10109
rtoes -8.34426
lowerback 7.27004 1.9283 -1.70445
upperback -3.7725 2.50519 1.31859
thorax -8.19904 1.35879 1.99051
lowerneck -3.41105 -3.89575 -6.58477
upperneck 6.88976 -5.25805 6.0276
head 3.24415 -2.5898 2.96932
lclavicle 2.46641e-14 2.38542e-15
lhumerus -26.57 -1.70012 88.6974
lradius 24.215
lwrist -31.4609
lhand -28.2263 30.3615
lfingers 7.12502
lthumb -1.60447 60.3352
rclavicle 2.46641e-14 2.38542e-15
rhumerus -32.221 2.07134 -79.9521
rradius 30.4652
rwrist 3.15981
rhand -19.7854 -27.0078
rfingers 7.12502
rthumb 6.54697 -56.8866
102
root -2.89761 16.3121 -36.1152 3.80989 0.642996 -2.89704
lfemur -23.8893 6.72257 -8.22237
ltibia 48.5616
lfoot -23.7532 0.396304
ltoes -9.80484
rfemur -23.8404 -7.5478 14.6141
rtibia 50.6205
rfoot -27.5692 2.10548
rtoes -8.41626
lowerback 7.28489 1.94219 -1.73506
upperback -3.76756 2.5199 1.31288
thorax -8.20437 1.36743 1.99914
lowerneck -3.39252 -3.89637 -6.55403
upperneck 6.88303 -5.25928 5.99758
head 3.2358 -2.59081 2.95318
lclavicle -3.55576e-14 -3.01159e-14
lhumerus -26.5779 -1.71214 88.711
lradius 24.2208
lwrist -31.5025
lhand -28.2663 30.213
lfingers 7.12502
lthumb -1.64315 60.1864
rclavicle -3.55576e-14 -3.01159e-14
rhumerus -32.2143 2.06124 -79.9506
rradius 30.4443
rwrist 3.16103
rhand -19.7808 -26.9849
rfingers 7.12502
rthumb 6.55139 -56.8636
103
root -2.89908 16.3107 -36.1136 3.79349 0.642905 -2.92131
lfemur -23.8792 6.72558 -8.18591
ltibia 48.5855
lfoot -23.7708 0.384313
ltoes -9.76938
rfemur -23.8333 -7.55348 14.6448
rtibia 50.6544
rfoot -27.598 2.13259
rtoes -8.23927
lowerback 7.29366 1.94409 -1.71714
upperback -3.76287 2.52465 1.31829
thorax -8.20406 1.36888 1.9939
lowerneck -3.39034 -3.89473 -6.57625
upperneck 6.88247 -5.25882 6.0368
head 3.23777 -2.58997 2.9711
lclavicle 2.71201e-14 7.65321e-15
lhumerus -26.5691 -1.76113 88.7346
lradius 24.2423
lwrist -31.4364
lhand -28.2475 30.2582
lfingers 7.12502
lthumb -1.62491 60.2317
rclavicle 2.71201e-14 7.65321e-15
rhumerus -32.2216 2.0582 -79.9527
rradius 30.4496
rwrist 3.14523
rhand -19.7289 -26.9749
rfingers 7.12502
rthumb 6.60152 -56.852
104
root -2.90033 16.3091 -36.1129 3.7832 0.646692 -2.93596
lfemur -23.8891 6.72141 -8.16331
ltibia 48.6173
lfoot -23.7781 0.4091
ltoes -9.84745
rfemur -23.844 -7.54882 14.6687
rtibia 50.6887
rfoot -27.6063 2.07308
rtoes -8.40476
lowerback 7.29953 1.94784 -1.69821
upperback -3.76634 2.53149 1.31599
thorax -8.21056 1.37118 1.97961
lowerneck -3.36742 -3.89976 -6.58543
upperneck 6.88593 -5.26827 6.06024
head 3.23667 -2.59453 2.98086
lclavicle 9.37083e-15 8.94531e-16
lhumerus -26.5764 -1.80314 88.7513
lradius 24.2623
lwrist -31.4011
lhand -28.2389 30.1487
lfingers 7.12502
lthumb -1.61668 60.1223
rclavicle 9.37083e-15 8.94531e-16
rhumerus -32.2358 2.05261 -79.9556
rradius 30.4458
rwrist 3.13154
rhand -19.7608 -27.0687
rfingers 7.12502
rthumb 6.57076 -56.9468
105
root -2.90076 16.3075 -36.1111 3.77155 0.653511 -2.90154
lfemur -23.8843 6.72059 -8.20133
ltibia 48.6477
lfoot -23.7987 0.413478
ltoes -9.78736
rfemur -23.8381 -7.57542 14.627
rtibia 50.7228
rfoot -27.6355 2.08762
rtoes -8.40443
lowerback 7.29923 1.95169 -1.72821
upperback -3.75822 2.53231 1.30223
thorax -8.20242 1.37263 1.98192
lowerneck -3.42443 -3.90966 -6.55163
upperneck 6.92512 -5.27961 6.02983
head 3.25922 -2.59935 2.96279
lclavicle -9.12856e-15 -6.95746e-15
lhumerus -26.5582 -1.83061 88.7652
lradius 24.2607
lwrist -31.4356
lhand -28.2606 30.072
lfingers 7.12502
lthumb -1.63758 60.0454
rclavicle -9.12856e-15 -6.95746e-15
rhumerus -32.2187 2.00814 -79.9437
rradius 30.4364
rwrist 3.14936
rhand -19.8187 -27.008
rfingers 7.12502
rthumb 6.51481 -56.8877
106
root -2.90138 16.305 -36.1106 3.76868 0.66911 -2.9246
lfemur -23.9054 6.72898 -8.17025
ltibia 48.6848
lfoot -23.8168 0.397708
ltoes -9.81773
rfemur -23.8493 -7.56976 14.6577
rtibia 50.7605
rfoot -27.6509 2.06737
rtoes -8.29546
lowerback 7.29131 1.95374 -1.69565
upperback -3.74773 2.53866 1.30361
thorax -8.18527 1.37379 1.96455
lowerneck -3.43602 -3.91994 -6.54011
upperneck 6.9053 -5.29236 6.02499
head 3.25484 -2.60532 2.95808
lclavicle -1.30647e-14 4.96962e-16
lhumerus -26.5489 -1.89002 88.794
lradius 24.3179
lwrist -31.374
lhand -28.2296 30.1145
lfingers 7.12502
lthumb -1.6077 60.0882
rclavicle -1.30647e-14 4.96962e-16
rhumerus -32.2196 2.00376 -79.9386
rradius 30.4557
rwrist 3.12415
rhand -20.0827 -26.8213
rfingers 7.12502
rthumb 6.25995 -56.7088
107
root -2.90215 16.303 -36.1086 3.76247 0.674298 -2.90984
lfemur -23.9169 6.74245 -8.18575
ltibia 48.7238
lfoot -23.8257 0.448067
ltoes -9.98982
rfemur -23.8536 -7.60054 14.6445
rtibia 50.7964
rfoot -27.6707 2.02538
rtoes -8.47579
lowerback 7.27704 1.94759 -1.7196
upperback -3.74702 2.52857 1.31085
thorax -8.17719 1.37036 1.98757
lowerneck -3.44052 -3.89992 -6.56686
upperneck 6.92316 -5.26432 6.02696
head 3.261 -2.59202 2.9652
lclavicle -7.36435e-15 6.26172e-15
lhumerus -26.5541 -1.86373 88.8072
lradius 24.3196
lwrist -31.3826
lhand -28.2372 30.0722
lfingers 7.12502
lthumb -1.61501 60.0458
rclavicle -7.36435e-15 6.26172e-15
rhumerus -32.2245 2.03444 -79.9285
rradius 30.4408
rwrist 3.13092
rhand -20.1873 -26.6924
rfingers 7.12502
rthumb 6.15899 -56.5829
108
root -2.90299 16.3002 -36.1078 3.75868 0.677291 -2.90975
lfemur -23.9329 6.74709 -8.17956
ltibia 48.767
lfoot -23.8378 0.443339
ltoes -9.92632
rfemur -23.8692 -7.59063 14.6478
rtibia 50.8332
rfoot -27.6892 1.98156
rtoes -8.64405
lowerback 7.25548 1.95376 -1.71619
upperback -3.74281 2.53732 1.30924
thorax -8.16028 1.37427 1.98339
lowerneck -3.38995 -3.9138 -6.5566
upperneck 6.88388 -5.28408 6.01499
head 3.23828 -2.60267 2.95858
lclavicle 2.4105e-14 8.54774e-15
lhumerus -26.5653 -1.92384 88.8392
lradius 24.3607
lwrist -31.3094
lhand -28.2068 30.0482
lfingers 7.12502
lthumb -1.58568 60.022
rclavicle 2.4105e-14 8.54774e-15
rhumerus -32.2266 2.01248 -79.9143
rradius 30.432
rwrist 3.14831
rhand -20.113 -26.7991
rfingers 7.12502
rthumb 6.23076 -56.6875
109
root -2.90209 16.2976 -36.1072 3.75247 0.707424 -2.92889
lfemur -23.9518 6.74503 -8.15686
ltibia 48.8147
lfoot -23.8809 0.398264
ltoes -9.86049
rfemur -23.858 -7.62135 14.6594
rtibia 50.8633
rfoot -27.7204 2.01969
rtoes -8.44519
lowerback 7.26468 1.94918 -1.66084
upperback -3.73773 2.53651 1.30386
thorax -8.15712 1.3706 1.94654
lowerneck -3.38798 -3.90834 -6.56409
upperneck 6.83762 -5.27652 6.03983
head 3.22278 -2.59832 2.96885
lclavicle 1.82408e-14 9.54166e-15
lhumerus -26.5436 -1.90738 88.8463
lradius 24.3649
lwrist -31.3531
lhand -28.306 29.9577
lfingers 7.12502
lthumb -1.68147 59.9308
rclavicle 1.82408e-14 9.54166e-15
rhumerus -32.2306 1.99682 -79.9057
rradius 30.4424
rwrist 3.14448
rhand -19.9972 -26.817
rfingers 7.12502
rthumb 6.34254 -56.7021
110
root -2.90262 16.2952 -36.1071 3.73029 0.73072 -2.92387
lfemur -23.9612 6.7446 -8.15827
ltibia 48.8606
lfoot -23.909 0.391271
ltoes -9.86225
rfemur -23.8474 -7.63846 14.6558
rtibia 50.8928
rfoot -27.7402 1.95269
rtoes -8.6345
lowerback 7.30819 1.95117 -1.6626
upperback -3.73344 2.5387 1.30679
thorax -8.17823 1.3719 1.94904
lowerneck -3.44255 -3.91591 -6.53726
upperneck 6.8696 -5.28226 5.98484
head 3.24117 -2.60136 2.9438
lclavicle 2.38215e-14 1.64991e-14
lhumerus -26.5299 -1.93112 88.8819
lradius 24.3717
lwrist -31.3048
lhand -28.3416 29.9337
lfingers 7.12502
lthumb -1.71588 59.9066
rclavicle 2.38215e-14 1.64991e-14
rhumerus -32.2578 2.00698 -79.8868
rradius 30.4624
rwrist 3.14058
rhand -19.8112 -27.0467
rfingers 7.12502
rthumb 6.52208 -56.9263
111
root -2.90343 16.2931 -36.1061 3.70836 0.741095 -2.95548
lfemur -23.9652 6.76329 -8.11434
ltibia 48.9082
lfoot -23.9431 0.388808
ltoes -9.91177
rfemur -23.8325 -7.62169 14.6913
rtibia 50.9227
rfoot -27.7564 1.92794
rtoes -8.68918
lowerback 7.31817 1.96043 -1.6306
upperback -3.72515 2.55495 1.3143
thorax -8.17475 1.37822 1.93645
lowerneck -3.4221 -3.92503 -6.54924
upperneck 6.84681 -5.29579 6.00728
head 3.23186 -2.60798 2.95339
lclavicle 7.61206e-15 -4.87022e-15
lhumerus -26.5151 -1.95002 88.9072
lradius 24.3857
lwrist -31.2785
lhand -28.2893 30.048
lfingers 7.12502
lthumb -1.66536 60.0213
rclavicle 7.61206e-15 -4.87022e-15
rhumerus -32.2852 1.98419 -79.8659
rradius 30.476
rwrist 3.12908
rhand -19.7934 -27.0466
rfingers 7.12502
rthumb 6.53927 -56.9257
